<svg xmlns="http://www.w3.org/2000/svg" xml:space="preserve" width="2000" height="295" viewBox="0 0 2000 295" data-version="1" data-id="lg_oQQmvWGWYivPxtfpHT"><g id="outer-wrapper" data-padding="20" transform="matrix(1,0,0,1,0,0)"><g id="inner-wrapper" transform="matrix(0.9666110183639399,0,0,0.9666110183639399,10,4.924874791318871)"><rect width="393.246" height="295.337" x="427.90739119170973" y="-428.1685" fill="none" rx="0" ry="0" transform="translate(502.4 428)"></rect><path fill="#a47007" d="M950.5103911917098 87.85950000000003Q944.9703911917097 87.85950000000003 940.5603911917098 85.22950000000003Q936.1603911917098 82.60950000000003 933.6303911917097 78.0095Q931.1103911917097 73.39949999999999 931.1103911917097 67.65949999999998V63.10949999999997Q931.1103911917097 62.70949999999999 931.5003911917098 62.70949999999999H942.6903911917098Q943.0903911917097 62.70949999999999 943.0903911917097 63.20949999999999V67.65949999999998Q943.0903911917097 71.3195 945.1703911917097 73.59949999999998T950.5103911917097 75.87949999999995Q953.4803911917097 75.87949999999995 955.6603911917097 73.39949999999993Q957.8403911917097 70.9294999999999 957.8403911917097 67.65949999999992V18.459499999999935Q957.8403911917097 18.059499999999957 958.2303911917096 18.059499999999957H969.3203911917096Q969.7203911917096 18.059499999999957 969.7203911917096 18.559499999999957L969.8203911917096 67.65949999999998Q969.8203911917096 73.10949999999997 967.1903911917096 77.70949999999999Q964.5703911917096 82.30950000000001 960.2103911917096 85.0795Q955.8603911917096 87.85949999999997 950.5103911917096 87.85949999999997M995.6503911917097 87.85949999999997Q990.3003911917095 87.85949999999997 985.9003911917097 85.12949999999995Q981.4903911917096 82.40949999999992 978.8203911917096 77.90949999999992Q976.1403911917097 73.39949999999993 976.1403911917097 67.95949999999993L976.2403911917096 36.56949999999995Q976.2403911917096 31.12949999999995 978.8703911917097 26.66949999999997Q981.4903911917096 22.219499999999982 985.9403911917096 19.549499999999966Q990.4003911917097 16.86949999999996 995.6503911917097 16.86949999999996Q1000.9903911917096 16.86949999999996 1005.3503911917096 19.549499999999966Q1009.7003911917096 22.219499999999982 1012.3303911917096 26.66949999999997Q1014.9503911917096 31.12949999999995 1014.9503911917096 36.56949999999995L1015.0503911917097 67.95949999999993Q1015.0503911917097 73.39949999999993 1012.4303911917096 77.90949999999992Q1009.8003911917097 82.40949999999992 1005.4003911917097 85.12949999999995Q1000.9903911917096 87.85949999999997 995.6503911917097 87.85949999999997M995.6503911917097 75.87949999999995Q998.6203911917097 75.87949999999995 1000.8403911917097 73.44949999999994Q1003.0703911917097 71.02949999999993 1003.0703911917097 67.95949999999993L1002.9703911917096 36.56949999999995Q1002.9703911917096 33.30949999999996 1000.8903911917097 31.029499999999928T995.6503911917097 28.749499999999955Q992.5803911917097 28.749499999999955 990.4003911917097 30.979499999999973T988.2203911917096 36.56949999999995V67.95949999999993Q988.2203911917096 71.21949999999993 990.4003911917097 73.54949999999991T995.6503911917097 75.8794999999999M1040.7003911917095 87.85949999999991Q1035.3603911917098 87.85949999999991 1031.0003911917097 85.1794999999999Q1026.6403911917096 82.50949999999989 1024.0203911917097 78.00949999999989Q1021.4003911917097 73.4994999999999 1021.4003911917097 67.95949999999988V36.56949999999989Q1021.4003911917097 31.229499999999916 1024.0203911917097 26.71949999999987Q1026.6403911917096 22.21949999999987 1031.0503911917099 19.549499999999853Q1035.4503911917095 16.869499999999846 1040.7003911917095 16.869499999999846Q1046.1503911917098 16.869499999999846 1050.5503911917099 19.49949999999984Q1054.9603911917097 22.119499999999846 1057.53039119171 26.579499999999825Q1060.1103911917098 31.029499999999814 1060.1103911917098 36.569499999999834V41.12949999999984Q1060.1103911917098 41.51949999999982 1059.6103911917098 41.51949999999982H1048.5203911917097Q1048.1303911917098 41.51949999999982 1048.1303911917098 41.12949999999984V37.369499999999846Q1048.1303911917098 33.599499999999864 1046.0003911917097 31.129499999999837Q1043.8703911917096 28.64949999999982 1040.7003911917095 28.64949999999982Q1037.8303911917096 28.64949999999982 1035.6003911917096 31.029499999999814Q1033.3803911917098 33.40949999999981 1033.3803911917098 36.569499999999834V67.95949999999982Q1033.3803911917098 71.21949999999981 1035.5503911917099 73.5494999999998Q1037.7303911917097 75.87949999999978 1040.7003911917095 75.87949999999978Q1043.8703911917096 75.87949999999978 1046.0003911917097 73.59949999999981T1048.1303911917098 67.95949999999982V63.1094999999998H1041.2003911917095Q1040.7003911917095 63.1094999999998 1040.7003911917095 62.6094999999998V51.51949999999982Q1040.7003911917095 51.029499999999814 1041.2003911917095 51.029499999999814H1059.7103911917097Q1060.1103911917098 51.029499999999814 1060.1103911917098 51.51949999999982V67.95949999999982Q1060.1103911917098 73.49949999999984 1057.4803911917097 78.00949999999983Q1054.8603911917098 82.50949999999983 1050.5003911917097 85.17949999999985Q1046.1503911917098 87.85949999999985 1040.7003911917095 87.85949999999985M1085.4403911917098 87.85949999999985Q1080.0903911917094 87.85949999999985 1075.6903911917098 85.12949999999984Q1071.2803911917094 82.40949999999981 1068.6103911917098 77.90949999999981Q1065.9403911917098 73.39949999999982 1065.9403911917098 67.95949999999982L1066.0403911917097 36.569499999999834Q1066.0403911917097 31.129499999999837 1068.6603911917096 26.669499999999857Q1071.2803911917094 22.21949999999987 1075.7403911917095 19.549499999999853Q1080.1903911917098 16.869499999999846 1085.4403911917098 16.869499999999846Q1090.7903911917097 16.869499999999846 1095.1403911917096 19.549499999999853Q1099.5003911917097 22.21949999999987 1102.1203911917096 26.669499999999857Q1104.7403911917095 31.129499999999837 1104.7403911917095 36.569499999999834L1104.8403911917098 67.95949999999982Q1104.8403911917098 73.39949999999982 1102.2203911917095 77.90949999999981Q1099.6003911917096 82.40949999999981 1095.1903911917098 85.12949999999984Q1090.7903911917097 87.85949999999985 1085.4403911917098 87.85949999999985M1085.4403911917098 75.87949999999984Q1088.4103911917096 75.87949999999984 1090.6403911917096 73.44949999999983Q1092.8603911917098 71.02949999999981 1092.8603911917098 67.95949999999982L1092.7703911917097 36.569499999999834Q1092.7703911917097 33.309499999999844 1090.6903911917098 31.029499999999814T1085.4403911917098 28.74949999999984Q1082.3703911917096 28.74949999999984 1080.1903911917098 30.97949999999986T1078.01039119171 36.569499999999834V67.95949999999982Q1078.01039119171 71.21949999999981 1080.1903911917098 73.5494999999998T1085.4403911917098 75.87949999999978M1123.9603911917097 86.86949999999979H1112.7703911917097Q1112.3803911917098 86.86949999999979 1112.3803911917098 86.36949999999979L1112.5803911917096 18.359499999999798Q1112.5803911917096 17.95949999999982 1112.9703911917095 17.95949999999982H1132.9703911917095Q1138.3203911917099 17.95949999999982 1142.8203911917099 20.589499999999816Q1147.3203911917099 23.20949999999982 1150.0003911917097 27.609499999999798Q1152.6703911917098 32.01949999999982 1152.6703911917098 37.55949999999979Q1152.6703911917098 41.2294999999998 1151.5803911917096 44.14949999999976T1149.0103911917095 49.09949999999975Q1147.5203911917097 51.12949999999972 1146.3303911917096 52.11949999999973Q1151.6803911917095 58.05949999999973 1151.6803911917095 66.07949999999971L1151.7803911917094 86.36949999999973Q1151.7803911917094 86.86949999999973 1151.2803911917094 86.86949999999973H1140.1003911917096Q1139.7003911917095 86.86949999999973 1139.7003911917095 86.56949999999972V66.07949999999971Q1139.7003911917095 62.50949999999972 1137.1803911917095 59.889499999999714Q1134.6503911917098 57.26949999999971 1130.99039119171 57.26949999999971H1124.4603911917097L1124.3603911917098 86.36949999999973Q1124.3603911917098 86.86949999999973 1123.9603911917097 86.86949999999973M1124.4603911917097 29.839499999999703V45.389499999999714H1132.97039119171Q1136.0403911917097 45.389499999999714 1138.4103911917096 43.10949999999974Q1140.7903911917097 40.82949999999977 1140.7903911917097 37.55949999999973Q1140.7903911917097 34.399499999999705 1138.4603911917097 32.11949999999973Q1136.1403911917096 29.83949999999976 1132.9703911917095 29.83949999999976ZM1156.72039119171 86.36949999999968L1169.0003911917097 18.359499999999684Q1169.0903911917098 17.959499999999707 1169.49039119171 17.959499999999707H1183.8503911917096Q1184.24039119171 17.959499999999707 1184.3403911917098 18.359499999999684L1196.1203911917096 86.36949999999968Q1196.22039119171 86.86949999999968 1195.7303911917097 86.86949999999968H1184.74039119171Q1184.3403911917098 86.86949999999968 1184.24039119171 86.36949999999968L1183.1503911917098 79.13949999999966H1169.6903911917098L1168.6003911917096 86.36949999999968Q1168.5003911917097 86.86949999999968 1168.1003911917096 86.86949999999968H1157.1203911917096Q1156.7203911917095 86.86949999999968 1156.7203911917095 86.36949999999968M1176.1203911917096 40.72949999999969L1171.6703911917098 68.54949999999968H1181.1703911917098L1177.1103911917098 40.72949999999969L1176.5203911917097 37.069499999999664ZM966.6403911917097 178.59950000000003H934.6603911917097Q934.2703911917098 178.59950000000003 934.2703911917098 178.09950000000003L934.3703911917097 110.18950000000007Q934.3703911917097 109.69950000000006 934.8603911917097 109.69950000000006H945.8503911917097Q946.3403911917097 109.69950000000006 946.3403911917097 110.18950000000007L946.2503911917098 166.41950000000008H966.6403911917098Q967.1303911917098 166.41950000000008 967.1303911917098 166.91950000000008V178.0995000000001Q967.1303911917098 178.5995000000001 966.6403911917098 178.5995000000001M970.2003911917099 178.0995000000001L982.4803911917098 110.0895000000001Q982.5803911917097 109.69950000000011 982.9703911917098 109.69950000000011H997.3303911917097Q997.7303911917098 109.69950000000011 997.8203911917097 110.0895000000001L1009.6103911917098 178.0995000000001Q1009.7003911917099 178.5995000000001 1009.2103911917098 178.5995000000001H998.2203911917098Q997.8203911917099 178.5995000000001 997.7303911917098 178.0995000000001L996.6403911917099 170.87950000000006H983.1703911917099L982.0803911917099 178.0995000000001Q981.9803911917098 178.5995000000001 981.5903911917098 178.5995000000001H970.6003911917098Q970.2003911917099 178.5995000000001 970.2003911917099 178.0995000000001M989.6103911917099 132.4695000000001L985.1503911917099 160.2795000000001H994.6603911917099L990.60039119171 132.4695000000001L990.0003911917098 128.79950000000008ZM1033.97039119171 178.5995000000001H1016.2503911917098Q1015.85039119171 178.5995000000001 1015.85039119171 178.0995000000001L1016.0503911917099 110.0895000000001Q1016.0503911917099 109.69950000000011 1016.4503911917099 109.69950000000011H1035.45039119171Q1041.10039119171 109.69950000000011 1045.5503911917099 112.41950000000014Q1050.01039119171 115.13950000000017 1052.58039119171 119.59950000000015Q1055.16039119171 124.04950000000014 1055.16039119171 129.29950000000014Q1055.16039119171 133.54950000000014 1053.2303911917097 137.21950000000015Q1051.2903911917097 140.87950000000018 1048.62039119171 143.15950000000015Q1051.49039119171 146.02950000000016 1053.0803911917096 149.78950000000015Q1054.66039119171 153.54950000000014 1054.66039119171 157.70950000000016Q1054.66039119171 163.44950000000017 1051.89039119171 168.19950000000017Q1049.12039119171 172.95950000000016 1044.41039119171 175.77950000000016Q1039.7103911917097 178.59950000000015 1033.97039119171 178.59950000000015M1027.93039119171 121.47950000000014V137.01950000000016H1035.45039119171Q1038.9203911917098 137.01950000000016 1041.0503911917099 134.58950000000016Q1043.18039119171 132.16950000000014 1043.18039119171 129.29950000000014Q1043.18039119171 126.12950000000012 1040.9003911917098 123.79950000000014Q1038.62039119171 121.47950000000014 1035.45039119171 121.47950000000014ZM1027.93039119171 148.99950000000013L1027.8303911917096 166.5195000000001H1033.97039119171Q1037.53039119171 166.5195000000001 1040.1103911917098 163.8995000000001Q1042.6803911917095 161.2695000000001 1042.6803911917095 157.7095000000001T1040.1103911917098 151.56950000000012Q1037.53039119171 148.99950000000013 1033.97039119171 148.99950000000013ZM1078.6203911917096 179.5895000000001Q1073.2703911917097 179.5895000000001 1068.8703911917096 176.86950000000007Q1064.4603911917097 174.13950000000006 1061.8403911917098 169.63950000000006Q1059.2103911917097 165.13950000000006 1059.2103911917097 159.68950000000007V155.13950000000006Q1059.2103911917097 154.63950000000006 1059.7103911917097 154.63950000000006H1070.8003911917099Q1071.1903911917098 154.63950000000006 1071.1903911917098 155.13950000000006V159.68950000000007Q1071.1903911917098 162.95950000000005 1073.3703911917096 165.27950000000004Q1075.5503911917099 167.60950000000003 1078.6203911917096 167.60950000000003T1083.8703911917096 165.22950000000003Q1086.0403911917097 162.85950000000003 1086.0403911917097 159.6895Q1086.0403911917097 156.02949999999998 1081.2903911917097 153.34950000000003Q1079.7103911917097 152.45950000000005 1076.3403911917098 150.57950000000005Q1072.9803911917097 148.69950000000006 1070.01039119171 147.01950000000005Q1064.5603911917096 143.84950000000003 1061.9403911917098 139.04950000000002Q1059.3103911917096 134.2495 1059.3103911917096 128.20950000000005Q1059.3103911917096 122.65950000000004 1061.99039119171 118.25950000000006Q1064.66039119171 113.84950000000003 1069.0703911917099 111.27950000000004Q1073.47039119171 108.70950000000005 1078.62039119171 108.70950000000005Q1083.87039119171 108.70950000000005 1088.2703911917097 111.32950000000005Q1092.68039119171 113.94950000000006 1095.3003911917099 118.35950000000003Q1097.9203911917098 122.7595 1097.9203911917098 128.20950000000005V136.32950000000005Q1097.9203911917098 136.71950000000004 1097.53039119171 136.71950000000004H1086.4403911917098Q1086.0403911917097 136.71950000000004 1086.0403911917097 136.32950000000005L1085.9403911917098 128.20950000000005Q1085.9403911917098 124.73950000000002 1083.7703911917097 122.56950000000006Q1081.5903911917098 120.38950000000006 1078.62039119171 120.38950000000006Q1075.5503911917099 120.38950000000006 1073.37039119171 122.70950000000005Q1071.1903911917098 125.03950000000003 1071.1903911917098 128.20950000000005Q1071.1903911917098 131.47950000000003 1072.5803911917096 133.64950000000005Q1073.97039119171 135.82950000000005 1077.6303911917098 137.80950000000007Q1078.12039119171 138.10950000000008 1079.5603911917096 138.8495000000001Q1080.99039119171 139.5895000000001 1082.68039119171 140.5295000000001Q1084.3603911917098 141.4695000000001 1085.70039119171 142.16950000000008Q1087.03039119171 142.85950000000008 1087.3303911917096 143.05950000000007Q1092.28039119171 145.82950000000005 1095.1503911917098 149.83950000000004T1098.0203911917097 159.68950000000007Q1098.0203911917097 165.32950000000005 1095.4003911917098 169.83950000000004Q1092.78039119171 174.33950000000004 1088.37039119171 176.96950000000004Q1083.9603911917097 179.58950000000004 1078.62039119171 179.58950000000004M1126.9183911917098 165.45650000000006L1120.46639119171 159.00550000000004L1138.8883911917096 140.58450000000005L1120.4663911917096 122.18850000000003L1126.9183911917098 115.73750000000001L1151.7653911917096 140.5845ZM1152.87439119171 157.64450000000005H1194.4543911917099V166.76750000000004H1152.87439119171ZM837.5903911917097 113.10950000000003H842.7903911917098A3.8 3.8 0 0 1 849.7903911917098 115.10950000000003C849.7903911917098 117.30950000000001 847.9903911917097 118.90950000000004 845.9903911917097 118.90950000000004C844.5903911917097 118.90950000000004 843.3903911917097 118.30950000000001 842.7903911917098 117.10950000000003H839.1903911917098L836.9903911917097 119.30950000000001V191.5095C848.9903911917097 187.3095 859.7903911917098 180.7095 869.1903911917098 172.5095L860.3903911917097 162.3095C856.5903911917097 156.5095 856.5903911917097 154.3095 856.5903911917097 154.3095C850.7903911917098 130.10950000000003 852.5903911917097 119.5095 863.3903911917097 96.90950000000004C867.1903911917098 89.10950000000003 868.9903911917097 79.70950000000005 868.9903911917097 70.90950000000004C869.1903911917098 44.70950000000005 845.9903911917097 26.309500000000014 824.9903911917097 20.109500000000025C808.9903911917097 15.509500000000003 792.1903911917098 17.309500000000014 776.3903911917097 21.709500000000048C762.3903911917097 25.50950000000006 750.9903911917097 33.70950000000005 744.9903911917097 47.50950000000006C742.3903911917097 53.10950000000008 740.3903911917097 59.30950000000007 738.5903911917097 65.50950000000006C737.9903911917097 68.50950000000006 739.3903911917097 72.10950000000008 739.3903911917097 75.10950000000008C739.3903911917097 77.9095000000001 739.7903911917098 81.50950000000006 738.5903911917097 83.7095000000001C734.5903911917097 90.9095000000001 729.9903911917097 97.9095000000001 726.1903911917098 104.9095000000001C723.7903911917098 109.10950000000008 724.5903911917097 111.50950000000012 728.5903911917097 113.7095000000001C730.1903911917098 114.50950000000012 731.3903911917097 115.10950000000008 732.9903911917097 115.50950000000012C737.7903911917098 117.30950000000013 738.5903911917097 118.9095000000001 737.7903911917098 123.7095000000001C737.3903911917097 125.7095000000001 737.7903911917098 126.7095000000001 737.9903911917097 128.9095000000001C737.9903911917097 128.9095000000001 738.3903911917097 131.10950000000008 740.1903911917098 130.50950000000012C738.1903911917098 133.10950000000014 737.1903911917098 135.30950000000013 740.1903911917098 138.30950000000013C741.7903911917098 140.10950000000014 742.3903911917097 143.50950000000012 742.1903911917098 145.90950000000015C741.9903911917097 154.70950000000016 743.9903911917097 158.30950000000013 752.5903911917097 159.30950000000013C758.1903911917098 159.90950000000015 764.3903911917097 159.10950000000014 769.9903911917097 158.7095000000001C773.7903911917098 158.30950000000013 777.1903911917098 158.30950000000013 778.5903911917097 162.10950000000008C781.1903911917098 169.10950000000008 783.7903911917098 176.10950000000008 785.9903911917097 183.10950000000008C786.5903911917097 185.10950000000008 786.7903911917098 187.50950000000006 787.3903911917097 189.9095000000001C786.9903911917097 192.10950000000008 786.1903911917098 194.10950000000008 785.3903911917097 195.9095000000001Q794.0903911917097 197.7095000000001 803.3903911917097 197.7095000000001V103.9095000000001L787.3903911917097 87.9095000000001H770.1903911917098L767.9903911917098 86.10950000000008H767.1903911917098A3.8 3.8 0 1 1 770.9903911917098 82.30950000000007V83.10950000000008L771.5903911917097 83.7095000000001H788.7903911917098L802.9903911917097 97.9095000000001V92.9095000000001L787.3903911917097 77.30950000000007H755.5903911917097L751.5903911917097 73.30950000000007H750.7903911917098A3.8 3.8 0 1 1 754.5903911917097 69.50950000000006V70.30950000000007L757.3903911917097 73.10950000000008H789.1903911917098L807.1903911917098 91.10950000000008V197.30950000000007C809.1903911917098 197.30950000000007 810.9903911917098 197.10950000000008 812.9903911917098 196.9095000000001V92.7095000000001L838.3903911917098 67.30950000000013V54.709500000000105A3.8 3.8 0 0 1 840.3903911917098 47.709500000000105C842.5903911917097 47.709500000000105 844.1903911917098 49.509500000000116 844.1903911917098 51.509500000000116C844.1903911917098 52.909500000000094 843.5903911917097 54.10950000000014 842.3903911917098 54.709500000000105V69.10950000000008L817.1903911917098 94.30950000000007V98.30950000000007L830.1903911917098 85.30950000000007V84.50950000000006A3.8 3.8 0 1 1 833.9903911917098 88.30950000000007H833.1903911917098L817.1903911917098 104.30950000000007V108.70950000000005L851.7903911917098 74.10950000000003V68.10950000000003A3.8 3.8 0 0 1 853.7903911917098 61.109500000000025C855.9903911917098 61.109500000000025 857.5903911917097 62.90950000000004 857.5903911917097 64.90950000000004C857.5903911917097 66.30950000000001 856.9903911917098 67.50950000000006 855.7903911917098 68.10950000000003V75.90950000000004L817.1903911917098 114.70950000000005V196.50950000000006C819.1903911917098 196.30950000000007 820.9903911917098 195.90950000000004 822.9903911917098 195.50950000000006V115.30950000000007L842.7903911917098 95.50950000000006H851.5903911917098L853.5903911917098 93.50950000000006V92.70950000000005A3.8 3.8 0 1 1 861.1903911917099 92.70950000000005C861.1903911917099 94.70950000000005 859.3903911917098 96.50950000000006 857.3903911917098 96.50950000000006H856.5903911917097L853.3903911917098 99.70950000000005H844.5903911917097L827.3903911917098 116.90950000000004V194.5095C829.3903911917098 194.10950000000003 831.1903911917099 193.5095 833.1903911917099 192.90949999999998V117.70949999999999ZM781.9903911917097 25.709500000000048C783.3903911917097 25.709500000000048 784.5903911917097 26.30950000000007 785.1903911917098 27.50950000000006H790.3903911917097L807.7903911917098 44.90950000000004H808.5903911917097A3.8 3.8 0 1 1 804.7903911917098 48.70950000000005V47.90950000000004L788.5903911917097 31.709500000000048H785.1903911917098A3.8 3.8 0 0 1 778.1903911917098 29.709500000000048C778.1903911917098 27.709500000000048 779.7903911917098 25.709500000000048 781.9903911917097 25.709500000000048M760.9903911917097 37.109500000000025H761.7903911917098L767.7903911917098 31.109500000000025H775.5903911917097L808.9903911917098 64.5095L815.9903911917098 57.5095V35.70949999999999L811.9903911917098 31.70949999999999H808.5903911917097A3.8 3.8 0 0 1 801.5903911917097 29.70949999999999C801.5903911917097 27.70949999999999 803.3903911917098 25.90949999999998 805.3903911917098 25.90949999999998C806.7903911917098 25.90949999999998 807.9903911917098 26.509500000000003 808.5903911917097 27.70949999999999H813.5903911917097L819.9903911917098 34.10949999999997V59.30949999999996L808.7903911917098 70.50949999999995L773.9903911917098 35.30949999999996H769.5903911917097L764.7903911917098 40.10949999999997V40.90949999999998A3.8 3.8 0 1 1 757.1903911917098 40.90949999999998C757.1903911917098 38.70949999999999 758.7903911917098 37.10949999999997 760.9903911917098 37.10949999999997M757.5903911917097 45.509499999999946C759.7903911917098 45.509499999999946 761.3903911917098 47.30949999999996 761.3903911917098 49.30949999999996V50.10949999999997L766.9903911917098 55.70949999999999H779.9903911917098L773.3903911917098 49.10949999999997H772.5903911917097A3.8 3.8 0 1 1 776.3903911917098 45.30949999999996V46.10949999999997L789.9903911917098 59.70949999999999H765.1903911917098L758.3903911917097 52.90949999999998H757.5903911917097C755.3903911917097 52.90949999999998 753.7903911917098 51.10949999999997 753.7903911917098 49.10949999999997S755.3903911917097 45.509499999999946 757.5903911917097 45.509499999999946M815.9903911917097 81.70949999999993H815.5903911917097L809.7903911917098 87.50949999999995L791.1903911917098 68.90949999999992H757.9903911917097L750.7903911917097 61.709499999999935H749.9903911917097A3.8 3.8 0 1 1 753.7903911917098 57.90949999999992V58.709499999999935L759.7903911917098 64.70949999999993H792.9903911917097L809.7903911917098 81.50949999999995L812.1903911917098 79.10949999999997C811.9903911917097 78.70949999999999 811.9903911917097 78.30949999999996 811.9903911917097 77.90949999999998A3.8 3.8 0 1 1 819.5903911917097 77.90949999999998C819.7903911917098 79.90949999999998 817.9903911917097 81.70949999999999 815.9903911917097 81.70949999999999M830.7903911917098 43.5095V63.90949999999998L826.1903911917098 68.5095V69.30950000000001A3.8 3.8 0 1 1 822.3903911917097 65.5095H823.1903911917098L826.5903911917097 62.109500000000025V43.5095A3.8 3.8 0 0 1 828.5903911917097 36.5095C830.7903911917098 36.5095 832.3903911917098 38.309500000000014 832.3903911917098 40.309500000000014C832.5903911917097 41.70949999999999 831.9903911917098 42.90950000000004 830.7903911917098 43.5095 "></path><path fill="#030303" stroke="#a47007" stroke-width="4.5" d="M901.1903911917098 14.442499999999995V181.5765 "></path></g><rect width="599" height="295" x="700.5" y="0" id="space-saver" fill="transparent" stroke="transparent"></rect></g></svg>